<svg id="Layer_1" data-name="Layer 1" xmlns="http://www.w3.org/2000/svg" viewBox="0 0 215.28 77.36"><defs><style>.cls-1{fill:#fff;}</style></defs><title>PHP UK</title><path class="cls-1" d="M13.74,28.55l-3.16,15H0.67L9.94,0H24.88q6.83,0,10.57,3.31a11.51,11.51,0,0,1,3.74,9.08,14.77,14.77,0,0,1-5.1,11.73Q29,28.55,19.84,28.55h-6.1Zm4.5-21L15.35,21.11h4.5a9.22,9.22,0,0,0,6.61-2.23,7.65,7.65,0,0,0,2.35-5.82,5.11,5.11,0,0,0-1.7-4,7.36,7.36,0,0,0-5-1.5H18.23Z"/><polygon class="cls-1" points="74.44 43.56 64.57 43.56 68.28 25.94 50.39 25.94 46.65 43.56 36.75 43.56 46.01 0 55.91 0 52.18 17.38 70.1 17.38 73.84 0 83.71 0 74.44 43.56"/><path class="cls-1" d="M94.24,28.55l-3.16,15h-9.9L90.44,0h14.94Q112.22,0,116,3.31a11.51,11.51,0,0,1,3.74,9.08,14.77,14.77,0,0,1-5.11,11.73q-5.1,4.43-14.25,4.43h-6.1Zm4.5-21L95.85,21.11h4.5a9.22,9.22,0,0,0,6.61-2.23,7.65,7.65,0,0,0,2.36-5.82,5.11,5.11,0,0,0-1.7-4,7.36,7.36,0,0,0-5-1.5H98.73Z"/><path class="cls-1" d="M168.36,25.82q-2.28,10.57-7.12,14.54t-13.38,4q-7.32,0-11.53-3.93t-4.21-10.77a32.63,32.63,0,0,1,.85-7L137.83,0h9.9l-4.92,22.66a31.83,31.83,0,0,0-.88,6,7,7,0,0,0,2,5.31A7,7,0,0,0,149,35.84a7.89,7.89,0,0,0,6.15-2.49q2.26-2.49,3.36-7.71L164,0h9.9Z"/><path class="cls-1" d="M215.28,0q-1.88,2.37-9.9,10.6t-9.93,10.63a118.52,118.52,0,0,0,5.89,11.15,122.41,122.41,0,0,1,5.86,11.18H195.26q-0.58-1.73-4.56-9.41-5-9.54-5.34-11.54h-0.12l-4.4,21h-9.9L180.19,0h9.9l-4.28,20.23h0.12q0.33-.46.79-1l0.7-.91q1.37-1.7,8-9.14,7.11-8,7.87-9.17h12Z"/><path class="cls-1" d="M16.33,76.08a12.8,12.8,0,0,1-6,1.28,9.77,9.77,0,0,1-7.53-3.06A11.14,11.14,0,0,1,0,66.44a11.6,11.6,0,0,1,3.3-8.63,10.71,10.71,0,0,1,7.87-3.1,12.78,12.78,0,0,1,5.16.9v2.72A10.43,10.43,0,0,0,11.14,57a8,8,0,0,0-6,2.43,9.5,9.5,0,0,0-2.43,6.85A9,9,0,0,0,5,72.77,7.49,7.49,0,0,0,10.65,75a10.62,10.62,0,0,0,5.68-1.47v2.51Z"/><path class="cls-1" d="M43.22,65.75q0,5.37-2.87,8.52a9.78,9.78,0,0,1-7.58,3.09,9.63,9.63,0,0,1-7.53-3.15,11.44,11.44,0,0,1-2.73-7.93A12.16,12.16,0,0,1,25.24,58a10,10,0,0,1,7.91-3.29,9.38,9.38,0,0,1,7.3,3.06,11.43,11.43,0,0,1,2.77,8m-2.69.34a10,10,0,0,0-2.08-6.79A6.93,6.93,0,0,0,33,57a7,7,0,0,0-5.6,2.51,9.65,9.65,0,0,0-2.16,6.54,9.7,9.7,0,0,0,2.14,6.57A6.84,6.84,0,0,0,32.77,75a7.19,7.19,0,0,0,5.61-2.28,9.57,9.57,0,0,0,2.15-6.68"/><path class="cls-1" d="M68.3,77H65.19L53.88,59.52a7.93,7.93,0,0,1-.69-1.37H53.1a22.44,22.44,0,0,1,.12,3V77H50.66V55.07H54L65,72.26c0.44,0.68.73,1.17,0.89,1.47h0.06a23,23,0,0,1-.15-3.22V55.07H68.3V77Z"/><polygon class="cls-1" points="88.3 57.39 79.76 57.39 79.76 64.97 87.67 64.97 87.67 67.28 79.76 67.28 79.76 76.98 77.19 76.98 77.19 55.07 88.3 55.07 88.3 57.39"/><polygon class="cls-1" points="107.2 76.98 95.58 76.98 95.58 55.07 106.69 55.07 106.69 57.39 98.15 57.39 98.15 64.68 106.07 64.68 106.07 67 98.15 67 98.15 74.66 107.2 74.66 107.2 76.98"/><path class="cls-1" d="M128.63,77h-3.07l-2.87-6.6q-1.19-2.72-3.35-2.72h-2.23V77h-2.56V55.07h6.54a7,7,0,0,1,5,1.67,5.42,5.42,0,0,1,1.66,4.15,6,6,0,0,1-1.34,4A6.38,6.38,0,0,1,122.87,67V67a4.65,4.65,0,0,1,2.26,2.6Zm-3.56-15.86a3.42,3.42,0,0,0-1.15-2.74,4.9,4.9,0,0,0-3.3-1h-3.51v7.95h3.39a4.67,4.67,0,0,0,3.3-1.17,4,4,0,0,0,1.27-3"/><polygon class="cls-1" points="147.28 76.98 135.67 76.98 135.67 55.07 146.78 55.07 146.78 57.39 138.24 57.39 138.24 64.68 146.15 64.68 146.15 67 138.24 67 138.24 74.66 147.28 74.66 147.28 76.98"/><path class="cls-1" d="M172.28,77h-3.12L157.85,59.52a7.94,7.94,0,0,1-.69-1.37h-0.09a21.63,21.63,0,0,1,.13,3V77h-2.57V55.07H158l11,17.19c0.44,0.68.73,1.17,0.89,1.47h0.06a23,23,0,0,1-.16-3.22V55.07h2.55V77Z"/><path class="cls-1" d="M196.07,76.08a12.81,12.81,0,0,1-6,1.28,9.77,9.77,0,0,1-7.53-3.06,11.13,11.13,0,0,1-2.77-7.87,11.6,11.6,0,0,1,3.3-8.63,10.72,10.72,0,0,1,7.87-3.1,12.78,12.78,0,0,1,5.17.9v2.72a10.43,10.43,0,0,0-5.2-1.31,8,8,0,0,0-6,2.43,9.49,9.49,0,0,0-2.43,6.85,9,9,0,0,0,2.29,6.48A7.48,7.48,0,0,0,190.38,75a10.63,10.63,0,0,0,5.68-1.47v2.51Z"/><polygon class="cls-1" points="215.28 76.98 203.67 76.98 203.67 55.07 214.78 55.07 214.78 57.39 206.24 57.39 206.24 64.68 214.15 64.68 214.15 67 206.24 67 206.24 74.66 215.28 74.66 215.28 76.98"/></svg>