<svg fill="#FFFFFF" version="1.1" id="Layer_1" xmlns="http://www.w3.org/2000/svg" xmlns:xlink="http://www.w3.org/1999/xlink" x="0px" y="0px"
	 viewBox="0 0 512 512" style="enable-background:new 0 0 512 512;" xml:space="preserve">
<g>
	<path d="M156.006,92.548H20.216C9.051,92.548,0,101.599,0,112.764v77.31c0,11.274,9.229,20.123,20.503,20.193
		c25.086,0.155,45.447,20.61,45.447,45.733s-20.361,45.579-45.447,45.733C9.229,301.804,0,310.653,0,321.926v77.31
		c0,11.164,9.051,20.216,20.216,20.216h135.791c3.721,0,6.739-3.016,6.739-6.739V99.287
		C162.745,95.564,159.727,92.548,156.006,92.548z"/>
	<path d="M492.26,210.312c10.974-0.373,19.74-9.23,19.74-20.21v-77.338c0-11.164-9.051-20.216-20.216-20.216h-281.87
		c-3.721,0-6.739,3.016-6.739,6.739v313.426c0,3.722,3.018,6.739,6.739,6.739h281.87c11.164,0,20.216-9.051,20.216-20.216v-77.338
		c0-10.98-8.767-19.837-19.74-20.21C433.845,299.7,433.706,212.305,492.26,210.312z M396.494,313.327H270.456
		c-11.164,0-20.216-9.051-20.216-20.216s9.051-20.216,20.216-20.216h126.037c11.164,0,20.216,9.051,20.216,20.216
		S407.658,313.327,396.494,313.327z M396.494,239.104H270.456c-11.164,0-20.216-9.051-20.216-20.216s9.051-20.216,20.216-20.216
		h126.037c11.164,0,20.216,9.051,20.216,20.216S407.658,239.104,396.494,239.104z"/>
</g>
</svg>
