<?xml version="1.0" encoding="utf-8"?>
<!-- Generator: Adobe Illustrator 21.1.0, SVG Export Plug-In . SVG Version: 6.00 Build 0)  -->
<svg version="1.1" id="mercariLogo" xmlns="http://www.w3.org/2000/svg" xmlns:xlink="http://www.w3.org/1999/xlink" x="0px"
	 y="0px" viewBox="0 0 987.044 263.105" enable-background="new 0 0 987.044 263.105" xml:space="preserve">
<g>
	<g>
		<polygon fill-rule="evenodd" clip-rule="evenodd" fill="#AF1C2E" points="123.843,74.426 36.426,117.493 36.426,220.124 
			123.843,177.059 211.261,220.124 211.261,117.493 		"/>
		<polygon fill-rule="evenodd" clip-rule="evenodd" fill="#F9401C" points="160.267,24.076 123.843,74.426 211.173,117.45 
			123.843,160.473 36.513,117.45 123.843,74.426 87.418,24.076 0,67.141 36.426,117.493 36.426,220.04 123.843,263.105 
			211.261,220.04 211.261,117.493 247.686,67.141 		"/>
		<g>
			<circle fill-rule="evenodd" clip-rule="evenodd" fill="#60C9F8" cx="111.55" cy="117.632" r="14.934"/>
		</g>
		<g>
			<ellipse fill-rule="evenodd" clip-rule="evenodd" fill="#60C9F8" cx="154.908" cy="83.884" rx="25.497" ry="24.405"/>
		</g>
		<g>
			<ellipse fill-rule="evenodd" clip-rule="evenodd" fill="#60C9F8" cx="95.074" cy="32.438" rx="34.102" ry="32.438"/>
		</g>
		<path fill="#FFFFFF" d="M105.494,220.4l-10.197-4.973v-22.569c0-2.299-0.476-4.169-1.425-5.607
			c-0.95-1.438-2.549-2.705-4.799-3.803c-2.1-1.024-3.649-1.341-4.649-0.955c-1.001,0.387-1.55,1.581-1.65,3.582v23.244
			l-9.597-4.681V182.07c0-2.299-0.487-4.175-1.462-5.625c-0.975-1.451-2.587-2.724-4.836-3.821c-2.249-1.097-3.85-1.39-4.799-0.878
			c-0.95,0.511-1.424,1.918-1.424,4.217v22.569l-9.972-4.864v-23.619c0-4.499,1.452-7.101,4.355-7.811
			c2.903-0.708,6.882,0.17,11.938,2.636c2.503,1.221,4.679,2.62,6.531,4.198c1.853,1.578,3.429,3.236,4.731,4.969
			c1.301-0.415,2.853-0.532,4.655-0.354c1.802,0.179,3.904,0.855,6.307,2.027c5.005,2.441,8.972,5.439,11.901,8.991
			c2.928,3.553,4.392,7.578,4.392,12.077V220.4z"/>
	</g>
	<g>
		<path fill="#231815" d="M398.436,194.948v-60.777c0-6.19-1.281-10.602-3.836-13.227c-2.559-2.625-6.865-3.938-12.923-3.938
			c-5.654,0-9.828,1.181-12.519,3.534c-2.694,2.357-4.174,6.294-4.442,11.812v62.595H338.87v-60.777
			c0-6.19-1.312-10.602-3.938-13.227s-6.966-3.938-13.024-3.938c-6.058,0-10.367,1.312-12.923,3.938
			c-2.559,2.625-3.836,7.036-3.836,13.227v60.777h-26.855v-63.605c0-12.115,3.909-21.031,11.728-26.755
			c7.818-5.72,18.532-8.581,32.149-8.581c6.739,0,12.601,0.908,17.589,2.726c4.988,1.817,9.235,4.209,12.74,7.168
			c3.502-2.826,7.682-5.181,12.535-7.066c4.853-1.884,10.516-2.827,16.986-2.827c13.479,0,24.162,2.861,32.048,8.581
			c7.885,5.724,11.828,14.64,11.828,26.755v63.605H398.436z"/>
		<path fill="#231815" d="M546.24,194.545c-1.348,0.271-2.963,0.57-4.847,0.908c-1.887,0.335-4.24,0.638-7.067,0.909
			c-2.826,0.268-6.193,0.505-10.096,0.706c-3.906,0.202-8.48,0.303-13.73,0.303c-9.156,0-17.466-0.908-24.938-2.726
			c-7.471-1.817-13.933-4.745-19.384-8.783c-5.452-4.039-9.661-9.355-12.62-15.952c-2.963-6.594-4.442-14.671-4.442-24.231
			c0-6.461,1.277-12.686,3.837-18.678c2.555-5.988,6.158-11.272,10.803-15.851c4.644-4.574,10.196-8.244,16.658-11.005
			c6.461-2.757,13.661-4.139,21.605-4.139c6.058,0,11.812,0.877,17.264,2.625c5.452,1.751,10.229,4.442,14.337,8.076
			c4.104,3.635,7.37,8.248,9.793,13.832c2.423,5.587,3.635,12.285,3.635,20.091c0,1.212,0,2.625,0,4.24
			c0,1.615-0.069,3.165-0.202,4.645h-71.878c0.404,4.981,1.547,9.086,3.434,12.317c1.883,3.23,4.441,5.789,7.673,7.673
			c3.23,1.887,7.133,3.199,11.711,3.938c4.575,0.741,9.692,1.11,15.346,1.11c8.749,0,15.883-0.303,21.404-0.909
			c5.518-0.605,9.42-1.242,11.711-1.918L546.24,194.545z M519.586,131.747c0-4.441-1.482-8.243-4.441-11.408
			c-2.963-3.161-7.472-4.745-13.529-4.745c-6.058,0-11.105,1.448-15.144,4.342c-4.039,2.896-7.001,6.833-8.885,11.812H519.586z"/>
		<path fill="#231815" d="M570.672,194.948v-55.439c0-13.892,4.24-24.646,12.721-32.27c8.481-7.622,20.258-11.434,35.336-11.434
			c2.151,0,4.038,0.035,5.654,0.101c1.615,0.069,3.06,0.171,4.341,0.304c1.277,0.135,2.524,0.303,3.735,0.504
			c1.212,0.202,2.556,0.373,4.038,0.505v21.606c-2.423-0.403-4.981-0.738-7.673-1.009c-2.694-0.269-5.117-0.404-7.269-0.404
			c-7.269,0-12.992,1.786-17.163,5.351c-4.175,3.568-6.26,8.854-6.26,15.851v56.336H570.672z"/>
		<path fill="#231815" d="M729.591,195.756c-2.827,0.404-6.026,0.773-9.592,1.111c-3.568,0.334-7.304,0.504-11.206,0.504
			c-9.156,0-17.467-0.877-24.938-2.625c-7.471-1.747-13.933-4.543-19.385-8.379c-5.451-3.837-9.66-8.815-12.619-14.942
			c-2.963-6.124-4.442-13.494-4.442-22.11c0-9.017,1.514-16.86,4.543-23.523c3.028-6.663,7.234-12.217,12.62-16.658
			c5.382-4.442,11.812-7.739,19.283-9.895c7.471-2.151,15.648-3.23,24.533-3.23c3.903,0,7.604,0.17,11.105,0.505
			c3.499,0.337,6.664,0.706,9.49,1.11v21.605c-2.423-0.536-5.017-0.94-7.773-1.212c-2.761-0.268-6.159-0.403-10.197-0.403
			c-11.847,0-20.832,2.423-26.956,7.269c-6.127,4.847-9.188,12.722-9.188,23.625c0,9.692,3.095,16.658,9.288,20.898
			c6.191,4.24,15.276,6.36,27.26,6.36c3.902,0,7.335-0.132,10.298-0.403c2.959-0.269,5.584-0.672,7.875-1.212V195.756z"/>
		<path fill="#231815" d="M847.916,194.948h-24.23v-14.491c-2.013,3.587-5.924,8.753-11.181,11.983
			c-3.85,2.366-10.222,4.931-17.087,4.931c-6.865,0-13.094-1.11-18.678-3.331c-5.588-2.222-10.399-5.386-14.438-9.49
			c-4.038-4.108-7.168-9.087-9.39-14.942c-2.221-5.855-3.331-12.418-3.331-19.688c0-7.673,1.11-14.81,3.331-21.403
			c2.222-6.598,5.452-12.286,9.692-17.062c4.24-4.779,9.456-8.55,15.65-11.308c6.189-2.757,13.19-4.139,20.999-4.139
			c7.401,0,14.1,1.044,20.091,3.129c5.988,2.086,11.106,5.216,15.347,9.39c4.24,4.171,7.502,9.421,9.793,15.75
			c2.287,6.325,3.433,13.73,3.433,22.211V194.948z M783.099,124.882c-4.038,4.847-6.058,12.115-6.058,21.808
			c0,9.692,2.02,15.961,6.058,20.808c4.038,4.846,9.49,6.268,16.355,6.268c6.02,0,12.469-5.567,15.18-8.517
			c4.794-5.219,7.234-12.109,7.234-18.559c0-9.692-2.02-16.961-6.058-21.808c-4.038-4.846-9.49-7.269-16.356-7.269
			C792.59,117.613,787.137,120.036,783.099,124.882z"/>
		<path fill="#231815" d="M873.164,194.948v-55.439c0-13.892,4.24-24.646,12.721-32.27c8.481-7.622,20.258-11.434,35.336-11.434
			c2.151,0,4.038,0.035,5.654,0.101c1.615,0.069,3.06,0.171,4.341,0.304c1.277,0.135,2.524,0.303,3.735,0.504
			c1.212,0.202,2.556,0.373,4.038,0.505v21.606c-2.423-0.403-4.981-0.738-7.673-1.009c-2.694-0.269-5.117-0.404-7.269-0.404
			c-7.269,0-12.992,1.786-17.163,5.351c-4.175,3.568-6.26,8.854-6.26,15.851v56.336H873.164z"/>
		<path fill="#231815" d="M971.496,87.123c-4.578,0-8.278-1.646-11.105-4.947c-2.827-3.297-4.24-7.301-4.24-12.014
			c0-4.711,1.413-8.648,4.24-11.812c2.827-3.161,6.594-4.745,11.308-4.745c4.575,0,8.278,1.584,11.106,4.745
			c2.827,3.164,4.24,7.102,4.24,11.812c0,4.713-1.413,8.717-4.24,12.014C979.976,85.477,976.207,87.123,971.496,87.123z
			 M957.563,194.948V98.431h27.462v96.518H957.563z"/>
	</g>
</g>
</svg>
