<svg xmlns="http://www.w3.org/2000/svg" xmlns:xlink="http://www.w3.org/1999/xlink" width="890" height="275" viewBox="0 0 890 275">
  <defs>
    <linearGradient id="-horizontal-dark-color-a" x1="0%" y1="0%" y2="100%">
      <stop offset="0%" stop-color="#FECA43"/>
      <stop offset="100%" stop-color="#FF6900"/>
    </linearGradient>
    <radialGradient id="-horizontal-dark-color-c" cx="100%" cy="0%" r="70.711%" fx="100%" fy="0%" gradientTransform="matrix(-.5486 .5486 -.4476 -.19271 1.549 -.549)">
      <stop offset="0%" stop-color="#FC4"/>
      <stop offset="100%" stop-color="#FC4" stop-opacity="0"/>
    </radialGradient>
    <polygon id="-horizontal-dark-color-b" points="26.428 93.961 33.954 93.961 33.954 9.073 60.087 9.073 60.087 2.628 .158 2.628 .158 9.073 26.428 9.073"/>
    <radialGradient id="-horizontal-dark-color-e" cx="100%" cy="0%" r="70.711%" fx="100%" fy="0%" gradientTransform="matrix(-.44747 .44747 -.47877 -.11986 1.447 -.447)">
      <stop offset="0%" stop-color="#FC4"/>
      <stop offset="100%" stop-color="#FC4" stop-opacity="0"/>
    </radialGradient>
    <polygon id="-horizontal-dark-color-d" points="76.643 93.961 122.343 93.961 122.343 87.516 84.169 87.516 84.169 48.432 116.87 48.432 116.87 41.986 84.169 41.986 84.169 9.073 121.385 9.073 121.385 2.628 76.643 2.628"/>
    <radialGradient id="-horizontal-dark-color-g" cx="100%" cy="0%" r="70.711%" fx="100%" fy="0%" gradientTransform="matrix(-.59838 .59838 -.42893 -.23925 1.598 -.598)">
      <stop offset="0%" stop-color="#FC4"/>
      <stop offset="100%" stop-color="#FC4" stop-opacity="0"/>
    </radialGradient>
    <path id="-horizontal-dark-color-f" d="M181.451539,95.4699063 C193.355364,95.4699063 202.796329,91.3557683 208.269353,86.4188028 L204.575062,81.0704235 C198.965213,85.8702511 191.439806,89.0244235 181.72519,89.0244235 C158.464841,89.0244235 145.603236,69.5508373 145.603236,47.8830442 C145.603236,26.489527 158.601667,7.42735454 181.451539,7.42735454 C189.934725,7.42735454 196.776004,9.75869937 202.249027,13.5985614 L206.080143,7.83876833 C199.649341,3.58749247 192.123934,1.11900971 181.72519,1.11900971 C154.360074,1.11900971 137.804178,23.3353545 137.804178,48.1573201 C137.804178,73.2535614 154.086422,95.4699063 181.451539,95.4699063 Z"/>
    <radialGradient id="-horizontal-dark-color-i" cx="100%" cy="0%" r="70.711%" fx="100%" fy="0%" gradientTransform="matrix(-.61159 .61159 -.42356 -.2531 1.612 -.612)">
      <stop offset="0%" stop-color="#FC4"/>
      <stop offset="100%" stop-color="#FC4" stop-opacity="0"/>
    </radialGradient>
    <polygon id="-horizontal-dark-color-h" points="227.562 93.961 235.087 93.961 235.087 48.843 290.638 48.843 290.638 93.961 298.164 93.961 298.164 2.628 290.638 2.628 290.638 42.398 235.087 42.398 235.087 2.628 227.562 2.628"/>
  </defs>
  <g fill="none" fill-rule="evenodd">
    <g fill="#0C121A">
      <path d="M130,95.4716981 L260,185.235849 L130,275 L0,185.235849 L130,95.4716981 Z M130,103.922403 L12.2386462,185.235849 L130,266.549295 L247.761354,185.235849 L130,103.922403 Z"/>
      <path d="M130,49.8113208 L260,139.575472 L130,229.339623 L0,139.575472 L130,49.8113208 Z M130,66.7580193 L24.5428803,139.575472 L130,212.392924 L235.45712,139.575472 L130,66.7580193 Z"/>
      <path d="M130,0 L260,89.7641509 L130,179.528302 L0,89.7641509 L130,0 Z M130,25.4820174 L36.9040672,89.7641509 L130,154.046284 L223.095933,89.7641509 L130,25.4820174 Z"/>
    </g>
    <g transform="translate(310 90.366)">
      <path fill="#0C121A" d="M1.34489535,93.961389 L1.34489535,2.62752695 L31.7201744,2.62752695 C53.0649651,2.62752695 65.3792674,11.8157683 65.3792674,28.9580097 C65.3792674,43.9060442 55.2541744,51.4486304 44.1713023,53.5056994 L44.1713023,53.7799752 C46.6341628,55.5627683 49.9179767,59.1283545 54.8436977,66.8080787 L72.6310233,93.961389 L51.4230581,93.961389 L34.7303372,67.9051821 C27.615407,57.3455614 26.1103256,56.3855959 21.8687326,56.3855959 L20.6373023,56.3855959 L20.6373023,93.961389 L1.34489535,93.961389 Z M20.6373023,42.6718028 L31.1728721,42.6718028 C41.4347907,42.6718028 46.223686,38.0091132 46.223686,30.0551132 C46.223686,21.6896994 41.4347907,17.4384235 30.3519186,17.4384235 L20.6373023,17.4384235 L20.6373023,42.6718028 Z M86.9977093,93.961389 L106.290116,93.961389 L106.290116,2.62752695 L86.9977093,2.62752695 L86.9977093,93.961389 Z M130.234593,93.961389 L130.234593,2.62752695 L160.199395,2.62752695 C180.039105,2.62752695 195.089919,11.8157683 195.089919,31.4264925 C195.089919,51.3114925 180.723233,61.4596994 158.010186,61.4596994 L149.663826,61.4596994 L149.663826,93.961389 L130.234593,93.961389 Z M149.663826,46.7859407 L158.283837,46.7859407 C170.461314,46.7859407 175.660686,41.8489752 175.660686,31.7007683 C175.660686,22.512527 170.59814,17.4384235 158.694314,17.4384235 L149.663826,17.4384235 L149.663826,46.7859407 Z M232.443302,95.6070442 C252.693488,95.6070442 265.144616,85.0474235 265.144616,68.4537339 C265.144616,51.5857683 253.788093,45.4145614 241.747442,39.9290442 C232.169651,35.5406304 224.917895,33.2092856 224.917895,26.0781132 C224.917895,19.9069063 229.706791,16.6155959 237.095372,16.6155959 C244.89443,16.6155959 251.735709,20.1811821 254.882698,22.2382511 L262.681756,8.66159592 C258.85064,5.78169937 250.914756,0.981871782 236.000767,0.981871782 C219.718523,0.981871782 206.583267,10.7186649 206.583267,26.352389 C206.583267,41.1632856 214.929628,48.1573201 226.149326,53.6428373 C236.821721,58.9912166 246.536337,61.3225614 246.536337,69.4136994 C246.536337,75.3106304 241.20014,79.9733201 232.032826,79.9733201 C221.497256,79.9733201 214.519151,74.6249407 212.466767,73.1164235 L204.257233,86.5559407 C208.225174,89.8472511 217.66614,95.6070442 232.443302,95.6070442 Z"/>
      <g transform="translate(273.333)">
        <use fill="url(#-horizontal-dark-color-a)" xlink:href="#-horizontal-dark-color-b"/>
        <use fill="url(#-horizontal-dark-color-c)" xlink:href="#-horizontal-dark-color-b"/>
        <use fill="url(#-horizontal-dark-color-a)" xlink:href="#-horizontal-dark-color-d"/>
        <use fill="url(#-horizontal-dark-color-e)" xlink:href="#-horizontal-dark-color-d"/>
        <g>
          <use fill="url(#-horizontal-dark-color-a)" xlink:href="#-horizontal-dark-color-f"/>
          <use fill="url(#-horizontal-dark-color-g)" xlink:href="#-horizontal-dark-color-f"/>
        </g>
        <g>
          <use fill="url(#-horizontal-dark-color-a)" xlink:href="#-horizontal-dark-color-h"/>
          <use fill="url(#-horizontal-dark-color-i)" xlink:href="#-horizontal-dark-color-h"/>
        </g>
      </g>
    </g>
  </g>
</svg>
