<?xml version="1.0" encoding="utf-8"?>
<!-- Generator: Adobe Illustrator 20.1.0, SVG Export Plug-In . SVG Version: 6.00 Build 0)  -->
<svg version="1.1" id="Layer_1" xmlns="http://www.w3.org/2000/svg" xmlns:xlink="http://www.w3.org/1999/xlink" x="0px" y="0px"
	 viewBox="0 0 1140.234 205.396" enable-background="new 0 0 1140.234 205.396" xml:space="preserve">
<g>
	<path d="M0,4.951h37.121v30.108h0.824C47.431,14.436,72.178,0,102.286,0c37.945,0,70.94,22.685,70.94,74.653v125.794h-37.119
		V84.964c0-36.707-21.035-50.317-44.545-50.317c-30.932,0-54.441,19.797-54.441,65.164v100.637H0V4.951z"/>
	<path d="M230.388,116.311c0,34.232,31.758,56.916,65.991,56.916c22.685,0,39.182-11.55,53.618-29.284l28.044,21.446
		c-20.621,26.808-49.079,40.006-86.612,40.006c-61.867,0-100.636-44.542-100.636-102.698C190.794,44.132,233.276,0,291.842,0
		c68.878,0,95.275,52.793,95.275,103.113v13.198H230.388z M347.522,86.612c-0.824-32.582-18.973-56.916-56.504-56.916
		c-36.707,0-60.63,30.935-60.63,56.916H347.522z"/>
	<path d="M458.303,96.099L389.012,4.951h47.842l47.431,69.29l46.607-69.29h44.954l-66.815,91.148l79.189,104.349h-47.843
		l-57.742-82.076l-57.742,82.076h-45.78L458.303,96.099z"/>
	<path d="M598.11,4.951h34.647v30.52h0.824C637.296,23.923,661.213,0,696.272,0c28.872,0,48.669,12.374,61.043,36.295
		C770.101,12.374,795.671,0,819.182,0c60.216,0,74.238,42.894,74.238,86.612v113.835h-37.119V91.563
		c0-29.696-6.187-56.916-42.07-56.916c-35.883,0-49.905,24.333-49.905,58.98v106.821h-37.122V98.162
		c0-37.119-5.36-63.515-41.243-63.515c-26.808,0-50.729,20.209-50.729,64.34v101.461H598.11V4.951z"/>
	<g>
		<circle fill="#008FC3" cx="1023.372" cy="100.479" r="23.824"/>
		<g>
			<path d="M1022.518,34.663c33.442,0,61.187,24.095,67.009,55.854h-13.091l31.852,31.318l31.946-31.318h-15.97
				c-6.105-50.793-49.308-90.172-101.746-90.172c-42.529,0-79.006,25.897-94.532,62.779l31.988,12.527
				C970.487,51.531,994.527,34.663,1022.518,34.663z"/>
			<path d="M1022.518,171.076c-32.808,0-60.131-23.19-66.656-54.055h14.446l-31.852-31.318l-31.946,31.318h14.486
				c6.897,49.921,49.703,88.374,101.521,88.374c42.423,0,78.825-25.767,94.417-62.503l-31.997-12.53
				C1074.364,154.334,1050.403,171.076,1022.518,171.076z"/>
		</g>
	</g>
</g>
</svg>
