<?xml version="1.0" encoding="utf-8"?>
<!-- Generator: Adobe Illustrator 20.1.0, SVG Export Plug-In . SVG Version: 6.00 Build 0)  -->
<svg version="1.1" id="Layer_1" xmlns="http://www.w3.org/2000/svg" xmlns:xlink="http://www.w3.org/1999/xlink" x="0px" y="0px"
	 viewBox="0 0 416.447 107.115" enable-background="new 0 0 416.447 107.115" xml:space="preserve">
<g>
	<path fill="#BC1C29" d="M33.869,48.032L15.141,54.85c0.239,2.999,0.758,5.97,1.484,8.873l17.791-6.476
		C33.838,54.244,33.634,51.138,33.869,48.032"/>
	<path fill="#BC1C29" d="M116.633,27.328c-1.307-2.7-2.819-5.303-4.569-7.757l-18.724,6.822c2.179,2.228,4.006,4.73,5.5,7.41
		L116.633,27.328z"/>
	<path fill="#E22434" d="M75.435,22.022c3.891,1.816,7.268,4.296,10.111,7.206l18.728-6.815c-5.185-7.278-12.256-13.358-20.911-17.4
		C56.599-7.464,24.664,4.157,12.183,30.919c-4.037,8.657-5.538,17.86-4.836,26.764l18.728-6.811
		c0.308-4.058,1.301-8.122,3.117-12.019C37.3,21.463,58.045,13.915,75.435,22.022"/>
	<path fill="#E22434" d="M17.794,63.3L0,69.779c1.636,6.486,4.469,12.654,8.364,18.133l18.687-6.798
		C22.256,76.189,19.063,69.956,17.794,63.3"/>
	<path fill="#E22434" d="M95.401,56.237c-0.298,4.054-1.322,8.122-3.144,12.02c-8.108,17.397-28.85,24.944-46.239,16.833
		c-3.899-1.82-7.299-4.283-10.135-7.195l-18.683,6.804c5.172,7.278,12.228,13.363,20.89,17.403
		c26.764,12.477,58.695,0.854,71.176-25.909c4.044-8.659,5.535-17.857,4.819-26.754L95.401,56.237z"/>
	<path fill="#E22434" d="M100.005,33.377l-17.791,6.477c3.303,5.925,4.867,12.74,4.355,19.589l18.687-6.794
		C104.72,45.946,102.932,39.403,100.005,33.377"/>
	<path fill="#97101B" d="M33.796,51.795c-0.041-1.249-0.024-2.505,0.073-3.764L15.141,54.85c0.094,1.204,0.249,2.394,0.429,3.58
		L33.796,51.795z"/>
	<path fill="#97101B" d="M113.918,22.394c-0.592-0.956-1.2-1.903-1.854-2.823l-18.721,6.822c0.824,0.837,1.581,1.733,2.304,2.653
		L113.918,22.394z"/>
	<path fill="#BC1C29" d="M17.199,84.699c1.439,2.027,3.034,3.961,4.76,5.784l20.344-7.42c-2.376-1.484-4.525-3.224-6.42-5.168
		L17.199,84.699z M114.084,49.439l-18.683,6.794c-0.197,2.695-0.723,5.389-1.581,8.043l20.337-7.42
		C114.305,54.372,114.281,51.896,114.084,49.439"/>
</g>
<g>
	<path d="M151.417,42.923l-3.937-8.128h-2.693v8.128h-6.544V18.813h10.78c1.4,0,2.681,0.144,3.841,0.431
		c1.159,0.287,2.152,0.74,2.979,1.36c0.827,0.62,1.464,1.429,1.912,2.428c0.447,0.999,0.671,2.21,0.671,3.633
		c0,1.814-0.392,3.295-1.174,4.443c-0.782,1.148-1.842,2.021-3.176,2.618l4.832,9.196H151.417z M151.105,24.979
		c-0.45-0.482-1.206-0.723-2.268-0.723h-4.05v5.27h3.946c1.107,0,1.892-0.229,2.353-0.689c0.462-0.459,0.693-1.125,0.693-1.998
		C151.78,26.081,151.554,25.461,151.105,24.979z"/>
	<path d="M163.937,42.923V18.813h18.461v5.614H170.55v3.238h7.129v5.511h-7.129v4.133h12.089v5.614H163.937z"/>
	<path d="M207.953,36.465c-0.551,1.55-1.378,2.802-2.479,3.754c-1.103,0.953-2.463,1.642-4.082,2.066
		c-1.618,0.425-3.495,0.637-5.631,0.637h-7.818V18.813h8.438c1.883,0,3.593,0.195,5.132,0.585c1.538,0.391,2.842,1.05,3.909,1.98
		c1.067,0.93,1.895,2.153,2.479,3.668c0.586,1.516,0.879,3.41,0.879,5.683C208.781,33.003,208.504,34.915,207.953,36.465z
		 M201.633,27.975c-0.195-0.804-0.511-1.458-0.947-1.963c-0.436-0.505-1.01-0.878-1.722-1.119s-1.584-0.362-2.617-0.362h-1.653
		v12.675h1.446c1.033,0,1.917-0.109,2.652-0.327c0.734-0.218,1.337-0.574,1.808-1.068c0.471-0.494,0.81-1.148,1.017-1.963
		c0.206-0.814,0.31-1.819,0.31-3.014C201.926,29.731,201.828,28.779,201.633,27.975z"/>
	<path d="M240.569,42.923v-9.506h-7.509v9.506h-6.819V18.813h6.819v8.783h7.509v-8.783h6.819v24.109H240.569z"/>
	<path d="M268.879,42.923l-1.309-4.236h-7.232l-1.309,4.236h-7.164l8.748-24.109h6.751l8.748,24.109H268.879z M265.504,31.798
		c-0.206-0.78-0.391-1.458-0.551-2.032c-0.161-0.574-0.305-1.09-0.431-1.55s-0.235-0.878-0.327-1.257s-0.172-0.775-0.241-1.188
		c-0.068,0.414-0.149,0.815-0.241,1.206c-0.092,0.391-0.201,0.815-0.327,1.274c-0.126,0.459-0.27,0.976-0.431,1.55
		c-0.16,0.574-0.344,1.24-0.551,1.998l-0.448,1.584h3.996L265.504,31.798z"/>
	<path d="M289.751,24.634v18.289h-6.682V24.634h-6.751v-5.821h20.184v5.821H289.751z"/>
	<path d="M305.453,22.987c-0.158,0.379-0.376,0.708-0.654,0.986s-0.607,0.497-0.986,0.654s-0.789,0.237-1.23,0.237
		c-0.442,0-0.853-0.079-1.231-0.237s-0.708-0.376-0.986-0.654s-0.496-0.607-0.654-0.986s-0.236-0.79-0.236-1.231
		s0.078-0.853,0.236-1.231s0.376-0.707,0.654-0.986c0.278-0.278,0.607-0.497,0.986-0.654s0.789-0.237,1.231-0.237
		c0.441,0,0.852,0.079,1.23,0.237s0.708,0.376,0.986,0.654c0.278,0.279,0.496,0.607,0.654,0.986s0.237,0.79,0.237,1.231
		S305.612,22.608,305.453,22.987z M304.993,20.727c-0.132-0.319-0.315-0.596-0.551-0.831s-0.513-0.419-0.831-0.551
		c-0.318-0.132-0.661-0.198-1.028-0.198c-0.374,0-0.718,0.066-1.033,0.198c-0.316,0.132-0.592,0.316-0.827,0.551
		s-0.419,0.512-0.551,0.831c-0.133,0.318-0.198,0.662-0.198,1.029c0,0.373,0.065,0.718,0.198,1.033
		c0.132,0.316,0.315,0.591,0.551,0.827s0.511,0.419,0.827,0.551c0.315,0.132,0.659,0.198,1.033,0.198
		c0.367,0,0.71-0.066,1.028-0.198c0.318-0.132,0.596-0.316,0.831-0.551s0.419-0.511,0.551-0.827c0.133-0.315,0.198-0.66,0.198-1.033
		C305.191,21.388,305.125,21.045,304.993,20.727z M303.796,21.678c-0.132,0.167-0.307,0.281-0.525,0.345l0.698,1.369h-0.678
		l-0.66-1.309h-0.652v1.309h-0.576v-3.393h1.484c0.148,0,0.29,0.02,0.425,0.06s0.252,0.102,0.352,0.185
		c0.101,0.083,0.181,0.189,0.24,0.319c0.061,0.129,0.091,0.283,0.091,0.46C303.995,21.293,303.928,21.511,303.796,21.678z
		 M303.262,20.679c-0.104-0.081-0.232-0.121-0.388-0.121h-0.896v0.964h0.896c0.155,0,0.284-0.039,0.388-0.116s0.155-0.2,0.155-0.366
		C303.417,20.88,303.366,20.759,303.262,20.679z"/>
	<path d="M165.625,75.359c-0.724,2.291-1.749,4.262-3.074,5.916c-1.326,1.652-2.919,2.944-4.779,3.874
		c-1.859,0.931-3.909,1.396-6.147,1.396c-2.239,0-4.28-0.457-6.122-1.369c-1.843-0.912-3.419-2.196-4.728-3.85
		c-1.309-1.652-2.316-3.616-3.022-5.889c-0.706-2.273-1.059-4.771-1.059-7.492c0-2.721,0.361-5.226,1.085-7.517
		c0.724-2.29,1.738-4.263,3.048-5.915c1.309-1.654,2.894-2.945,4.753-3.875c1.86-0.93,3.909-1.395,6.148-1.395
		c2.238,0,4.279,0.457,6.122,1.369c1.842,0.913,3.418,2.196,4.727,3.848c1.309,1.654,2.325,3.617,3.049,5.891
		c0.723,2.273,1.085,4.771,1.085,7.49C166.71,70.563,166.348,73.069,165.625,75.359z M161.828,61.771
		c-0.568-1.842-1.352-3.426-2.351-4.752s-2.17-2.342-3.513-3.049c-1.344-0.706-2.808-1.059-4.392-1.059
		c-1.55,0-2.988,0.354-4.313,1.059c-1.326,0.707-2.472,1.705-3.436,2.996c-0.965,1.292-1.723,2.859-2.273,4.701
		c-0.552,1.844-0.827,3.901-0.827,6.174c0,2.273,0.284,4.332,0.853,6.174c0.568,1.844,1.344,3.428,2.325,4.754
		s2.144,2.342,3.487,3.048c1.343,0.706,2.807,1.06,4.392,1.06c1.55,0,2.996-0.354,4.339-1.06c1.344-0.706,2.497-1.705,3.462-2.997
		c0.964-1.291,1.722-2.857,2.273-4.701c0.55-1.842,0.826-3.9,0.826-6.174S162.396,63.615,161.828,61.771z"/>
	<path d="M200.368,65.388c-0.603,1.395-1.438,2.566-2.506,3.513c-1.067,0.948-2.359,1.662-3.874,2.144
		c-1.517,0.483-3.17,0.724-4.96,0.724h-8.782v14.208h-4.03V49.812h13.536c1.653,0,3.177,0.215,4.572,0.646
		c1.395,0.431,2.608,1.094,3.642,1.989c1.033,0.896,1.843,2.024,2.429,3.383c0.585,1.361,0.878,2.954,0.878,4.779
		C201.272,62.4,200.97,63.994,200.368,65.388z M195.279,55.365c-1.31-1.256-3.203-1.885-5.683-1.885h-9.351V68.1h8.834
		c5.441,0,8.163-2.444,8.163-7.336C197.243,58.422,196.587,56.623,195.279,55.365z"/>
	<path d="M209.693,85.976V49.812h21.854v3.668h-17.823v11.366h10.332v3.668h-10.332v13.795h18.599v3.668H209.693z"/>
	<path d="M263.835,85.976l-15.765-24.747c-0.206-0.31-0.429-0.68-0.67-1.11c-0.24-0.431-0.48-0.861-0.721-1.292
		s-0.473-0.835-0.695-1.214c-0.224-0.379-0.387-0.689-0.489-0.93v2.479v26.813h-3.927V49.812h3.927l15.653,25.211
		c0.207,0.311,0.431,0.681,0.672,1.111c0.24,0.431,0.482,0.861,0.724,1.291c0.24,0.432,0.473,0.836,0.697,1.215
		c0.224,0.379,0.388,0.688,0.49,0.93v-2.48V49.812h3.927v36.165H263.835z"/>
	<path d="M300.077,80.448c-0.534,1.239-1.317,2.308-2.351,3.203s-2.291,1.602-3.771,2.118s-3.169,0.775-5.062,0.775
		c-2.479,0-4.762-0.475-6.846-1.422c-2.084-0.946-3.849-2.144-5.295-3.59l2.687-2.996c1.377,1.309,2.858,2.359,4.442,3.15
		c1.584,0.793,3.307,1.189,5.167,1.189c2.41,0,4.313-0.551,5.708-1.654c1.396-1.102,2.093-2.617,2.093-4.546
		c0-0.827-0.138-1.584-0.413-2.273c-0.276-0.688-0.749-1.325-1.421-1.911s-1.559-1.162-2.661-1.73s-2.479-1.145-4.133-1.73
		c-1.963-0.689-3.608-1.387-4.934-2.093c-1.326-0.706-2.395-1.464-3.203-2.273c-0.81-0.809-1.395-1.713-1.757-2.712
		c-0.361-0.999-0.542-2.152-0.542-3.462c0-1.446,0.275-2.737,0.826-3.874c0.551-1.137,1.317-2.11,2.299-2.919
		c0.982-0.809,2.17-1.421,3.565-1.834c1.395-0.414,2.936-0.62,4.623-0.62c2.411,0,4.47,0.345,6.174,1.033
		c1.705,0.689,3.314,1.636,4.831,2.841l-2.583,3.151c-1.31-1.102-2.627-1.938-3.952-2.506c-1.327-0.568-2.902-0.852-4.728-0.852
		c-1.24,0-2.308,0.147-3.203,0.439c-0.896,0.293-1.627,0.68-2.195,1.163s-0.982,1.042-1.24,1.679
		c-0.259,0.638-0.388,1.317-0.388,2.04c0,0.759,0.104,1.439,0.311,2.041c0.206,0.604,0.619,1.188,1.239,1.757
		s1.489,1.128,2.609,1.679c1.119,0.552,2.591,1.154,4.417,1.809c1.997,0.723,3.668,1.446,5.012,2.17
		c1.343,0.723,2.419,1.516,3.229,2.377c0.809,0.861,1.386,1.808,1.73,2.841c0.344,1.033,0.517,2.222,0.517,3.565
		C300.877,77.882,300.611,79.208,300.077,80.448z"/>
	<path d="M332.805,85.976V68.927h-17.979v17.049h-4.03V49.812h4.03v15.448h17.979V49.812h4.029v36.165H332.805z"/>
	<path d="M348.15,85.976V49.812h4.029v36.165H348.15z"/>
	<path d="M367.523,53.479v11.986h9.919v3.668h-9.919v16.843h-4.03V49.812h21.233v3.668H367.523z"/>
	<path d="M405.804,53.479v32.497h-4.03V53.479h-10.643v-3.668h25.315v3.668H405.804z"/>
</g>
</svg>
